<svg width="20" height="20" viewBox="0 0 20 20" fill="none" xmlns="http://www.w3.org/2000/svg">
<path d="M12.1094 7.89111L7.8927 12.1078C7.35103 11.5661 7.0177 10.8244 7.0177 9.99945C7.0177 8.34945 8.35103 7.01611 10.001 7.01611C10.826 7.01611 11.5677 7.34945 12.1094 7.89111Z" stroke="#7E8793" stroke-width="1.5" stroke-linecap="round" stroke-linejoin="round"/>
<path d="M14.8515 4.80767C13.3932 3.70767 11.7265 3.10767 10.0015 3.10767C7.05985 3.10767 4.31818 4.841 2.40985 7.841C1.65985 9.016 1.65985 10.991 2.40985 12.166C3.06818 13.1993 3.83485 14.091 4.66818 14.8077" stroke="#7E8793" stroke-width="1.5" stroke-linecap="round" stroke-linejoin="round"/>
<path d="M7.0177 16.2747C7.9677 16.6747 8.97603 16.8914 10.001 16.8914C12.9427 16.8914 15.6844 15.158 17.5927 12.158C18.3427 10.983 18.3427 9.00803 17.5927 7.83303C17.3177 7.3997 17.0177 6.99137 16.7094 6.60803" stroke="#7E8793" stroke-width="1.5" stroke-linecap="round" stroke-linejoin="round"/>
<path d="M12.9245 10.5837C12.7079 11.7587 11.7495 12.7171 10.5745 12.9337" stroke="#7E8793" stroke-width="1.5" stroke-linecap="round" stroke-linejoin="round"/>
<path d="M7.88839 12.1072L1.66339 18.3322" stroke="#7E8793" stroke-width="1.5" stroke-linecap="round" stroke-linejoin="round"/>
<path d="M18.3344 1.66663L12.1094 7.89163" stroke="#7E8793" stroke-width="1.5" stroke-linecap="round" stroke-linejoin="round"/>
</svg>
